<?xml version="1.0"?>
<svg xmlns="http://www.w3.org/2000/svg" height="512px" viewBox="0 0 446.368 446.368" width="512px"><path d="m415.183594 207.183594h31.183594c-8.054688-110.914063-96.265626-199.128906-207.183594-207.183594v31.183594c0 8.835937-7.164063 16-16 16-8.835938 0-16-7.164063-16-16v-31.183594c-110.914063 8.054688-199.128906 96.269531-207.183594 207.183594h31.183594c8.835937 0 16 7.164062 16 16 0 8.835937-7.164063 16-16 16h-31.183594c8.054688 110.917968 96.269531 199.128906 207.183594 207.183594v-31.183594c0-8.835938 7.164062-16 16-16 8.835937 0 16 7.164062 16 16v31.183594c110.917968-8.054688 199.128906-96.265626 207.183594-207.183594h-31.183594c-8.835938 0-16-7.164063-16-16 0-8.835938 7.164062-16 16-16zm-96 32h-96c-8.835938 0-16-7.164063-16-16v-112c0-8.835938 7.164062-16 16-16 8.835937 0 16 7.164062 16 16v96h80c8.835937 0 16 7.164062 16 16 0 8.835937-7.164063 16-16 16zm0 0" fill="#a56d3e"/></svg>
