<?xml version="1.0" encoding="iso-8859-1"?>
<!-- Generator: Adobe Illustrator 18.1.1, SVG Export Plug-In . SVG Version: 6.00 Build 0)  -->
<svg xmlns="http://www.w3.org/2000/svg" xmlns:xlink="http://www.w3.org/1999/xlink" version="1.1" id="Capa_1" x="0px" y="0px" viewBox="0 0 612.002 612.002" style="enable-background:new 0 0 612.002 612.002;" xml:space="preserve" width="512px" height="512px">
<g>
	<g>
		<path d="M180.144,365.677c0.405,3.068,2.057,5.835,4.565,7.647c1.934,1.398,4.242,2.131,6.591,2.131    c0.702,0,1.406-0.066,2.106-0.198c38.301-7.296,75.121-10.843,112.561-10.843c37.441,0,74.283,3.547,112.63,10.843    c3.068,0.586,6.247-0.134,8.763-1.983c2.52-1.85,4.155-4.664,4.518-7.766c14.43-123.545,43.406-328.527,43.698-330.584    c0.791-5.592-2.687-10.905-8.128-12.418C413.743,7.57,359.432,0,306.02,0c-53.411,0-107.736,7.57-161.468,22.504    c-5.405,1.501-8.878,6.755-8.143,12.318L180.144,365.677z" fill="#FFFFFF"/>
		<path d="M545.982,223.584h-47.164c-10.356,0-18.792,6.906-20.519,16.791c-2.887,16.53,11.986,22.87,21.828,27.068    c0.702,0.299,1.437,0.609,2.205,0.928c1.96,71.063-29.158,107.982-49.423,124.394c-5.039-4.352-11.586-7.006-18.751-7.006H177.841    c-7.152,0-13.687,2.641-18.723,6.98c-20.182-16.414-51.39-53.415-49.447-124.37c0.766-0.318,1.498-0.628,2.198-0.925    c9.842-4.198,24.714-10.538,21.828-27.068c-1.727-9.885-10.164-16.791-20.519-16.791H66.015    c-20.475,0-37.133,16.655-37.133,37.128v9.435c0,6.507,3.171,12.608,8.494,16.348c3.41,2.397,7.429,3.633,11.489,3.633    c2.278,0,4.568-0.39,6.77-1.184c0.1-0.034,5.986-2.157,14.171-5.18c2.021,56.252,22.299,93.636,40.36,115.994    c14.411,17.841,29.268,28.811,38.938,34.776v10.838c0,15.849,12.892,28.743,28.741,28.743h102.431v39.451    c-37.809,1.563-75.697,6.578-114.014,15.044c-0.166,0.036-0.33,0.074-0.494,0.113c-22.926,5.54-36.611,22.932-36.611,46.526    c0,14.207,11.517,25.726,25.726,25.726c13.22,0,24.109-9.969,25.562-22.798c33.532-7.236,66.717-11.588,99.831-13.077v21.174    c0,14.207,11.517,25.726,25.726,25.726c14.207,0,25.726-11.517,25.726-25.726v-21.174c33.109,1.489,66.292,5.841,99.83,13.075    c1.453,12.829,12.342,22.796,25.56,22.796c14.207,0,25.726-11.519,25.726-25.726c0-23.871-14.663-42.158-37.396-46.703    c-38.224-8.427-76.013-13.418-113.72-14.98v-39.449h102.433c15.846,0,28.739-12.893,28.739-28.743v-10.838    c9.672-5.964,24.527-16.935,38.939-34.776c18.061-22.358,38.339-59.742,40.361-115.994c8.182,3.025,14.066,5.146,14.166,5.18    c2.201,0.792,4.49,1.184,6.77,1.184c4.058,0,8.079-1.237,11.489-3.633c5.323-3.74,8.494-9.841,8.494-16.348v-9.435    C583.115,240.239,566.457,223.584,545.982,223.584z" fill="#FFFFFF"/>
	</g>
</g>
<g>
</g>
<g>
</g>
<g>
</g>
<g>
</g>
<g>
</g>
<g>
</g>
<g>
</g>
<g>
</g>
<g>
</g>
<g>
</g>
<g>
</g>
<g>
</g>
<g>
</g>
<g>
</g>
<g>
</g>
</svg>
